<svg width="333" height="256" viewBox="0 0 333 256" fill="none" xmlns="http://www.w3.org/2000/svg">
<path d="M34.7043 230.565L29.4108 237.227H16.0393C13.7312 237.227 11.5941 236.891 9.63075 236.22C7.66743 235.549 5.97688 234.627 4.5561 233.451C3.13531 232.275 2.02326 230.881 1.21396 229.267C0.40465 227.654 0 225.903 0 224.018C0 222.133 0.40465 220.409 1.21396 218.848C2.02326 217.287 3.13831 215.942 4.5561 214.818C5.97388 213.695 7.66743 212.831 9.63075 212.224C11.5941 211.617 13.7282 211.314 16.0393 211.314H34.7043L29.4108 218.054H16.0393C14.9242 218.054 13.8901 218.209 12.9339 218.518C11.9777 218.827 11.1564 219.259 10.467 219.816C9.77763 220.371 9.23209 221.036 8.83643 221.812C8.44077 222.588 8.23995 223.44 8.23995 224.368C8.23995 225.296 8.43178 226.145 8.81845 226.907C9.20212 227.668 9.74765 228.322 10.4491 228.861C11.1505 229.404 11.9807 229.824 12.9369 230.122C13.8931 230.42 14.9272 230.568 16.0423 230.568H34.7043V230.565Z" fill="#2E74EE"/>
<path d="M47.4761 237.227L52.4518 230.566H59.1361C59.9334 230.566 60.7607 230.566 61.624 230.566C62.4872 230.566 63.2366 230.592 63.872 230.644C63.5004 230.181 63.0687 229.591 62.5802 228.882C62.0886 228.173 61.618 227.508 61.1684 226.886L56.3934 220.03L43.8971 237.23H34.1465L51.2169 213.794C51.7744 213.044 52.4758 212.373 53.3271 211.781C54.1753 211.186 55.2514 210.891 56.5493 210.891C57.7963 210.891 58.8364 211.168 59.6726 211.723C60.5089 212.277 61.2163 212.969 61.8008 213.794L78.4336 237.23H47.4761V237.227Z" fill="#2E74EE"/>
<path d="M110.234 230.565L104.902 237.227H81.3838V211.311H89.6207V230.563H110.234V230.565Z" fill="#2E74EE"/>
<path d="M121.337 237.227H113.1V211.311H121.337V237.227Z" fill="#2E74EE"/>
<path d="M156.313 211.311L150.981 218.051H134.744V221.421H154.8L149.785 227.735H134.744V237.227H126.468V211.311H156.313Z" fill="#2E74EE"/>
<path d="M176.57 210.885C183.041 210.885 187.903 211.956 191.155 214.101C194.404 216.245 196.029 219.627 196.029 224.249C196.029 228.897 194.41 232.293 191.173 234.438C187.936 236.582 183.068 237.653 176.57 237.653C170.044 237.653 165.167 236.582 161.945 234.438C158.723 232.293 157.11 228.897 157.11 224.249C157.11 219.627 158.729 216.242 161.966 214.101C165.2 211.959 170.068 210.885 176.57 210.885ZM176.57 230.913C178.638 230.913 180.391 230.828 181.821 230.662C183.254 230.493 184.414 230.166 185.304 229.673C186.191 229.183 186.836 228.506 187.235 227.639C187.633 226.775 187.831 225.643 187.831 224.249C187.831 222.854 187.633 221.725 187.235 220.858C186.836 219.995 186.194 219.323 185.304 218.845C184.414 218.366 183.254 218.045 181.821 217.876C180.388 217.71 178.638 217.625 176.57 217.625C174.501 217.625 172.748 217.71 171.318 217.876C169.885 218.045 168.725 218.366 167.835 218.845C166.945 219.323 166.303 219.995 165.905 220.858C165.506 221.725 165.308 222.854 165.308 224.249C165.308 225.643 165.506 226.773 165.905 227.639C166.303 228.506 166.945 229.183 167.835 229.673C168.722 230.163 169.885 230.493 171.318 230.662C172.748 230.831 174.498 230.913 176.57 230.913Z" fill="#2E74EE"/>
<path d="M237.972 237.227H226.951L221.022 230.37H208.367V237.227H200.13V223.98H223.291C224.565 223.98 225.638 223.723 226.513 223.204C227.389 222.687 227.826 221.978 227.826 221.074C227.826 220.067 227.428 219.312 226.633 218.807C225.836 218.302 224.724 218.051 223.291 218.051H200.13L205.501 211.311H222.614C224.127 211.311 225.692 211.445 227.311 211.717C228.929 211.988 230.401 212.472 231.729 213.17C233.054 213.867 234.151 214.809 235.011 215.997C235.874 217.185 236.306 218.708 236.306 220.569C236.306 221.576 236.147 222.533 235.829 223.434C235.512 224.339 235.053 225.153 234.457 225.874C233.86 226.597 233.129 227.21 232.268 227.715C231.405 228.22 230.431 228.573 229.343 228.78C229.793 229.115 230.299 229.541 230.854 230.058C231.411 230.574 232.151 231.283 233.081 232.188L237.972 237.227Z" fill="#2E74EE"/>
<path d="M267.899 237.653C267.368 237.653 266.844 237.568 266.328 237.402C265.809 237.233 265.234 236.853 264.595 236.258L248.28 222.002V237.227H240.799V215.729C240.799 214.877 240.925 214.141 241.177 213.52C241.428 212.901 241.761 212.397 242.172 212.009C242.582 211.621 243.059 211.338 243.604 211.157C244.147 210.976 244.71 210.885 245.295 210.885C245.799 210.885 246.311 210.97 246.827 211.136C247.345 211.305 247.933 211.685 248.598 212.28L264.913 226.536V211.314H272.434V232.774C272.434 233.626 272.308 234.362 272.056 234.983C271.804 235.602 271.472 236.112 271.061 236.512C270.65 236.912 270.165 237.204 269.607 237.385C269.053 237.562 268.48 237.653 267.899 237.653Z" fill="#2E74EE"/>
<path d="M285.646 237.227H277.409V211.311H285.646V237.227Z" fill="#2E74EE"/>
<path d="M302.04 237.227L307.015 230.566H313.7C314.497 230.566 315.324 230.566 316.188 230.566C317.051 230.566 317.8 230.592 318.436 230.644C318.064 230.181 317.632 229.591 317.141 228.882C316.649 228.173 316.179 227.508 315.729 226.886L310.954 220.03L298.458 237.23H288.707L305.78 213.794C306.338 213.044 307.039 212.373 307.891 211.781C308.739 211.186 309.815 210.891 311.113 210.891C312.36 210.891 313.4 211.168 314.236 211.723C315.072 212.277 315.783 212.969 316.364 213.794L333 237.23H302.04V237.227Z" fill="#2E74EE"/>
<path d="M55.5453 251.156C54.2594 251.261 54.0616 251.474 54.0256 252.741V254.926C52.8686 255.577 50.9683 256 49.1398 256C45.411 256 42.8242 253.517 42.8242 249.96C42.8242 246.386 45.465 243.742 48.9929 243.742C49.8442 243.742 50.7105 243.935 51.7236 244.358C52.1223 244.515 52.3741 244.588 52.5389 244.588C52.9016 244.588 53.0635 244.413 53.3362 243.795H53.8068V247.827H53.3722C52.7577 246.523 52.3411 245.942 51.5617 245.274C50.8004 244.623 50.0421 244.305 49.2088 244.305C47.0746 244.305 45.9505 246.208 45.9505 249.835C45.9505 251.929 46.3312 253.391 47.0896 254.36C47.6861 255.119 48.4294 255.434 49.5505 255.434C50.7434 255.434 51.25 255.046 51.25 254.164V252.35C51.2141 251.398 50.9593 251.206 49.4575 251.153V250.713H55.5363V251.156H55.5453Z" fill="#E2363C"/>
<path d="M70.2353 255.664H64.4982V255.241C64.753 255.206 64.9688 255.189 65.0587 255.189C65.6732 255.136 65.91 254.979 65.91 254.626C65.91 254.237 65.6942 253.604 65.0947 252.265H61.1141L60.8413 252.951C60.4787 253.814 60.3348 254.29 60.3348 254.518C60.3348 254.976 60.7334 255.168 61.7825 255.238V255.661H58.1826V255.238C59.0339 255.081 59.2497 254.833 59.9181 253.213L63.8448 243.754H64.3513L68.296 252.825C69.2551 254.99 69.453 255.238 70.2323 255.238V255.664H70.2353ZM64.8249 251.597L63.0325 247.404L61.3689 251.597H64.8249Z" fill="#E2363C"/>
<path d="M86.0289 255.664H82.393L78.7212 250.258H78.2506V253.639C78.2866 254.891 78.4484 255.066 79.8063 255.241V255.664H73.8174V255.241C75.1752 255.101 75.3371 254.923 75.3731 253.639V246.012C75.3371 244.743 75.0823 244.498 73.8174 244.428V244.005H79.5335C82.7917 244.005 84.5272 245.079 84.5272 247.069C84.5272 247.845 84.2365 248.548 83.7299 249.006C83.2413 249.447 82.7887 249.657 81.7396 249.992L85.3036 254.906C85.4654 255.136 85.7022 255.241 86.0259 255.241V255.664H86.0289ZM78.2476 249.712C79.6054 249.695 80.2019 249.59 80.6725 249.289C81.251 248.918 81.5058 248.25 81.5058 247.141C81.5058 245.327 80.8374 244.588 79.2068 244.588C78.7542 244.588 78.4844 244.676 78.3735 244.854C78.3195 244.959 78.2476 245.207 78.2476 245.312V249.712V249.712Z" fill="#E2363C"/>
<path d="M101.352 255.664H95.6154V255.241C95.8702 255.206 96.086 255.189 96.1759 255.189C96.7904 255.136 97.0272 254.979 97.0272 254.626C97.0272 254.237 96.8114 253.604 96.2119 252.265H92.2313L91.9585 252.951C91.5958 253.814 91.452 254.29 91.452 254.518C91.452 254.976 91.8506 255.168 92.8997 255.238V255.661H89.2998V255.238C90.1511 255.081 90.3669 254.833 91.0353 253.213L94.9619 243.754H95.4685L99.4131 252.825C100.372 254.99 100.57 255.238 101.349 255.238V255.664H101.352ZM95.9421 251.597L94.1497 247.404L92.4861 251.597H95.9421Z" fill="#E2363C"/>
<path d="M116.678 251.156C115.392 251.261 115.194 251.474 115.158 252.741V254.926C114.001 255.577 112.101 256 110.273 256C106.544 256 103.957 253.517 103.957 249.96C103.957 246.386 106.598 243.742 110.126 243.742C110.977 243.742 111.843 243.935 112.856 244.358C113.255 244.515 113.507 244.588 113.672 244.588C114.034 244.588 114.196 244.413 114.469 243.795H114.94V247.827H114.505C113.891 246.523 113.474 245.942 112.695 245.274C111.933 244.623 111.175 244.305 110.342 244.305C108.207 244.305 107.083 246.208 107.083 249.835C107.083 251.929 107.464 253.391 108.222 254.36C108.819 255.119 109.562 255.434 110.683 255.434C111.876 255.434 112.383 255.046 112.383 254.164V252.35C112.347 251.398 112.092 251.206 110.59 251.153V250.713H116.669V251.156H116.678Z" fill="#E2363C"/>
<path d="M119.915 244.005H130.139V247.474H129.705C129.252 245.184 128.383 244.586 125.508 244.586C124.585 244.586 124.351 244.743 124.351 245.397V249.412C126.252 249.429 126.956 248.796 127.229 246.823H127.681V252.671H127.229C127.013 250.663 126.288 249.992 124.351 249.992V254.167C124.351 254.926 124.678 255.136 125.817 255.136C127.175 255.136 128.134 254.853 128.946 254.22C129.579 253.727 129.941 253.234 130.502 252.073H130.991L130.286 255.664H119.918V255.241C121.186 255.136 121.438 254.923 121.474 254.01V245.659C121.438 244.743 121.111 244.48 119.918 244.428V244.005H119.915Z" fill="#E2363C"/>
<path d="M140.99 255.241C141.985 255.224 142.456 254.871 142.456 254.097V245.589C142.438 244.778 142.093 244.515 140.99 244.428V244.005H146.401C150.507 244.005 152.968 246.152 152.968 249.73C152.968 253.286 150.417 255.664 146.598 255.664H140.99V255.241V255.241ZM145.334 254.062C145.334 254.839 145.567 255.066 146.365 255.066C147.522 255.066 148.373 254.678 148.969 253.87C149.548 253.094 149.893 251.614 149.893 249.978C149.893 248.516 149.638 247.247 149.17 246.348C148.556 245.152 147.651 244.586 146.383 244.586C145.678 244.586 145.334 244.778 145.334 245.184V254.062V254.062Z" fill="#E2363C"/>
<path d="M169.235 249.87C169.235 253.461 166.63 256 162.973 256C159.301 256 156.693 253.464 156.693 249.887C156.693 246.295 159.316 243.739 163.027 243.739C166.609 243.742 169.235 246.348 169.235 249.87ZM159.826 250.047C159.826 253.552 160.929 255.437 162.955 255.437C165.017 255.437 166.102 253.552 166.102 249.995C166.102 246.403 164.963 244.305 163.009 244.305C160.929 244.305 159.826 246.313 159.826 250.047Z" fill="#E2363C"/>
<path d="M185.571 249.87C185.571 253.461 182.966 256 179.309 256C175.637 256 173.029 253.464 173.029 249.887C173.029 246.295 175.652 243.739 179.363 243.739C182.948 243.742 185.571 246.348 185.571 249.87ZM176.162 250.047C176.162 253.552 177.265 255.437 179.291 255.437C181.353 255.437 182.438 253.552 182.438 249.995C182.438 246.403 181.299 244.305 179.345 244.305C177.265 244.305 176.162 246.313 176.162 250.047Z" fill="#E2363C"/>
<path d="M201.419 255.664H197.783L194.111 250.258H193.64V253.639C193.676 254.891 193.838 255.066 195.196 255.241V255.664H189.207V255.241C190.565 255.101 190.727 254.923 190.763 253.639V246.012C190.727 244.743 190.472 244.498 189.207 244.428V244.005H194.926C198.184 244.005 199.92 245.079 199.92 247.069C199.92 247.845 199.629 248.548 199.123 249.006C198.634 249.447 198.181 249.657 197.132 249.992L200.696 254.906C200.858 255.136 201.095 255.241 201.419 255.241V255.664ZM193.64 249.712C194.998 249.695 195.595 249.59 196.065 249.289C196.644 248.918 196.898 248.25 196.898 247.141C196.898 245.327 196.23 244.588 194.599 244.588C194.147 244.588 193.874 244.676 193.766 244.854C193.712 244.959 193.64 245.207 193.64 245.312V249.712Z" fill="#E2363C"/>
<path d="M223.528 255.664H219.892L216.22 250.258H215.75V253.639C215.786 254.891 215.947 255.066 217.305 255.241V255.664H211.316V255.241C212.674 255.101 212.836 254.923 212.872 253.639V246.012C212.836 244.743 212.581 244.498 211.316 244.428V244.005H217.035C220.294 244.005 222.029 245.079 222.029 247.069C222.029 247.845 221.738 248.548 221.232 249.006C220.743 249.447 220.291 249.657 219.242 249.992L222.806 254.906C222.967 255.136 223.204 255.241 223.528 255.241V255.664ZM215.75 249.712C217.107 249.695 217.704 249.59 218.175 249.289C218.753 248.918 219.008 248.25 219.008 247.141C219.008 245.327 218.339 244.588 216.709 244.588C216.256 244.588 215.983 244.676 215.875 244.854C215.822 244.959 215.75 245.207 215.75 245.312V249.712V249.712Z" fill="#E2363C"/>
<path d="M226.873 244.005H237.097V247.474H236.663C236.21 245.184 235.341 244.586 232.466 244.586C231.543 244.586 231.309 244.743 231.309 245.397V249.412C233.21 249.429 233.914 248.796 234.187 246.823H234.639V252.671H234.187C233.971 250.663 233.246 249.992 231.309 249.992V254.167C231.309 254.926 231.636 255.136 232.775 255.136C234.133 255.136 235.092 254.853 235.904 254.22C236.537 253.727 236.899 253.234 237.46 252.073H237.949L237.244 255.664H226.876V255.241C228.144 255.136 228.396 254.923 228.432 254.01V245.659C228.396 244.743 228.069 244.48 226.876 244.428V244.005H226.873Z" fill="#E2363C"/>
<path d="M241.186 255.241C241.366 255.206 241.548 255.171 241.602 255.171C242.4 255.084 242.651 254.713 242.669 253.639V246.012C242.633 244.778 242.397 244.515 241.186 244.428V244.005H246.884C249.869 244.005 251.533 245.131 251.533 247.121C251.533 248.478 250.753 249.517 249.324 250.062C248.547 250.363 247.948 250.415 245.541 250.433V253.639C245.577 254.926 245.721 255.084 247.097 255.241V255.664H241.18V255.241H241.186ZM245.544 249.835C246.812 249.835 247.39 249.712 247.804 249.359C248.293 248.971 248.49 248.32 248.49 247.212C248.49 245.362 247.894 244.606 246.428 244.606C245.832 244.606 245.541 244.799 245.541 245.204V249.835H245.544Z" fill="#E2363C"/>
<path d="M265.084 255.664H259.35V255.241C259.602 255.206 259.82 255.189 259.91 255.189C260.525 255.136 260.762 254.979 260.762 254.626C260.762 254.237 260.546 253.604 259.946 252.265H255.966L255.693 252.951C255.33 253.814 255.186 254.29 255.186 254.518C255.186 254.976 255.585 255.168 256.634 255.238V255.661H253.034V255.238C253.885 255.081 254.101 254.833 254.77 253.213L258.696 243.754H259.203L263.148 252.825C264.107 254.99 264.305 255.238 265.084 255.238V255.664V255.664ZM259.677 251.597L257.884 247.404L256.22 251.597H259.677Z" fill="#E2363C"/>
<path d="M274.709 255.664H268.501V255.241C269.787 255.136 270.129 254.888 270.147 254.01V245.659C270.111 244.761 269.748 244.498 268.501 244.428V244.005H274.709V244.428C273.423 244.463 273.045 244.746 273.027 245.659V254.007C273.045 254.906 273.39 255.168 274.709 255.238V255.664Z" fill="#E2363C"/>
<path d="M290.178 255.664H286.542L282.871 250.258H282.4V253.639C282.436 254.891 282.598 255.066 283.956 255.241V255.664H277.967V255.241C279.325 255.101 279.486 254.923 279.522 253.639V246.012C279.486 244.743 279.232 244.498 277.967 244.428V244.005H283.686C286.944 244.005 288.68 245.079 288.68 247.069C288.68 247.845 288.389 248.548 287.882 249.006C287.394 249.447 286.941 249.657 285.892 249.992L289.456 254.906C289.618 255.136 289.855 255.241 290.178 255.241V255.664ZM282.397 249.712C283.755 249.695 284.351 249.59 284.822 249.289C285.4 248.918 285.655 248.25 285.655 247.141C285.655 245.327 284.987 244.588 283.356 244.588C282.904 244.588 282.631 244.676 282.523 244.854C282.469 244.959 282.397 245.207 282.397 245.312V249.712V249.712Z" fill="#E2363C"/>
<path d="M156.167 165.432H179.394V187.514H154.483C151.335 187.514 148.422 187.056 145.745 186.14C143.068 185.223 140.76 183.966 138.827 182.361C136.891 180.759 135.371 178.857 134.268 176.657C133.165 174.457 132.613 172.07 132.613 169.5C132.613 166.929 133.165 164.577 134.268 162.447C135.371 160.317 136.891 158.485 138.827 156.953C140.763 155.421 143.068 154.243 145.745 153.414C148.422 152.588 151.335 152.171 154.483 152.171H164.335L157.915 161.362H154.483C152.963 161.362 151.551 161.572 150.25 161.995C148.949 162.418 147.816 163.016 146.857 163.792C145.898 164.569 145.149 165.473 144.606 166.512C144.063 167.55 143.791 168.703 143.791 169.972C143.791 171.241 144.051 172.394 144.579 173.433C145.104 174.471 145.844 175.361 146.803 176.1C147.762 176.841 148.892 177.413 150.196 177.818C151.5 178.224 152.927 178.425 154.483 178.425H168.214V173.301H149.435L156.167 165.432Z" fill="#2E74EE"/>
<path d="M237.355 187.514H222.323L214.236 178.162H196.977V187.514H185.743V169.447H217.33C219.065 169.447 220.531 169.097 221.727 168.391C222.92 167.688 223.519 166.719 223.519 165.485C223.519 164.11 222.977 163.08 221.892 162.395C220.807 161.709 219.287 161.365 217.333 161.365H161.442L167.827 152.174H216.472C218.469 152.174 220.603 152.358 222.809 152.728C225.015 153.099 227.023 153.758 228.834 154.709C230.641 155.661 232.134 156.947 233.312 158.567C234.487 160.186 235.074 162.264 235.074 164.799C235.074 166.173 234.859 167.475 234.424 168.709C233.989 169.943 233.366 171.052 232.551 172.038C231.735 173.024 230.74 173.862 229.565 174.547C228.39 175.233 227.059 175.72 225.575 176C226.19 176.459 226.879 177.039 227.638 177.742C228.396 178.448 229.409 179.417 230.677 180.648L237.355 187.514Z" fill="#E2363C"/>
<path d="M117.518 178.428C115.998 178.428 114.586 178.227 113.288 177.821C111.985 177.416 110.854 176.844 109.895 176.103C108.936 175.364 108.193 174.477 107.668 173.436C107.147 172.394 106.88 171.241 106.88 169.972C106.88 168.706 107.15 167.545 107.698 166.488C108.241 165.429 108.978 164.525 109.922 163.769C110.86 163.013 111.985 162.421 113.288 161.995C114.589 161.575 115.998 161.365 117.518 161.365L131.597 161.315C131.687 161.163 131.618 161.05 131.717 160.901C132.775 157.756 137.241 153.889 141.138 152.171H117.515C114.367 152.171 111.454 152.585 108.777 153.411C106.098 154.237 103.796 155.418 101.856 156.953C99.9198 158.482 98.4002 160.314 97.3001 162.444C96.191 164.58 95.6455 166.929 95.6455 169.497C95.6455 172.07 96.191 174.454 97.3001 176.657C98.4002 178.854 99.9198 180.759 101.856 182.361C103.793 183.963 106.098 185.223 108.777 186.137C111.451 187.056 114.367 187.508 117.515 187.508H140.718C136.291 185.609 132.529 181.696 131.474 178.422H117.518V178.428Z" fill="#E2363C"/>
<path d="M257.747 117.797V196.267H244.168V118.532L166.924 60.1531L88.8352 118.007V196.267H75.2568V117.181L166.999 49.2114L257.747 117.797Z" fill="#2E74EE"/>
<path d="M303.029 102.265H257.186L167.554 34.5261L76.1171 102.265H29.9746L167.71 0L303.029 102.265Z" fill="#E2363C"/>
<path d="M166.499 59.6479L86.458 118.552H246.542L166.499 59.6479ZM166.502 61.2323L236.83 114.645H95.9329L166.502 61.2323Z" fill="#2E74EE"/>
<path d="M245.424 121.756H87.582V125.66H245.424V121.756Z" fill="#2E74EE"/>
<path d="M245.424 128.864H87.582V132.768H245.424V128.864Z" fill="#2E74EE"/>
<path d="M245.424 135.974H87.582V139.878H245.424V135.974Z" fill="#2E74EE"/>
</svg>
